<?xml version="1.0" encoding="UTF-8"?>
<svg width="156px" height="156px" viewBox="0 0 156 156" version="1.1" xmlns="http://www.w3.org/2000/svg" xmlns:xlink="http://www.w3.org/1999/xlink">
    <!-- Generator: Sketch 43.1 (39012) - http://www.bohemiancoding.com/sketch -->
    <title>error</title>
    <desc>Created with Sketch.</desc>
    <defs></defs>
    <g id="Page-1" stroke="none" stroke-width="1" fill="none" fill-rule="evenodd">
        <g id="error" fill-rule="nonzero" fill="#222222">
            <path d="M133.119375,22.809375 C102.708375,-7.60162499 53.223375,-7.60462499 22.809375,22.809375 C-7.60462499,53.223375 -7.60162499,102.705375 22.809375,133.119375 C53.220375,163.533375 102.705375,163.533375 133.119375,133.119375 C163.530375,102.705375 163.530375,53.220375 133.119375,22.809375 Z M108.723375,108.723375 C106.380375,111.066375 102.582375,111.066375 100.239375,108.723375 L77.964375,86.448375 L54.630375,109.782375 C52.287375,112.125375 48.489375,112.125375 46.146375,109.782375 C43.803375,107.439375 43.803375,103.641375 46.146375,101.298375 L69.480375,77.964375 L47.205375,55.689375 C44.862375,53.346375 44.862375,49.545375 47.205375,47.205375 C49.548375,44.862375 53.346375,44.862375 55.689375,47.205375 L77.964375,69.480375 L99.177375,48.267375 C101.520375,45.924375 105.318375,45.924375 107.661375,48.267375 C110.004375,50.610375 110.004375,54.408375 107.661375,56.751375 L86.448375,77.964375 L108.723375,100.239375 C111.066375,102.582375 111.066375,106.380375 108.723375,108.723375 Z" id="Shape"></path>
        </g>
    </g>
</svg>